<svg xmlns="http://www.w3.org/2000/svg" viewBox="0 0 180 180">
  <rect width="180" height="180" rx="36" fill="#2f4f7c"/>
  <g transform="translate(30 30) scale(5)">
    <path d="M17.8 19.2L16 11l3.5-3.5C21 6 21.5 4 21 3c-1-.5-3 0-4.5 1.5L13 8.5l-8.2-1.8c-.4-.1-.8.1-.9.5l-.9 3c-.1.4.1.8.5.9l5.5 1.5-3.2 3.2c-1 1-1.5 2-1 3 1 .5 3 0 4.5-1.5l3.5-3.5 8.2 1.8c.4.1.8-.1.9-.5l.9-3c.1-.4-.1-.8-.5-.9z" fill="none" stroke="#f8fafc" stroke-width="1.5" stroke-linecap="round" stroke-linejoin="round"/>
  </g>
</svg>
